<svg xmlns:mydata="http://www.w3.org/2000/svg" mydata:contrastcolor="101820" mydata:template="Contrast" mydata:presentation="2.5" mydata:layouttype="undefined" mydata:specialfontid="undefined" mydata:id1="200" mydata:id2="546" mydata:companyname="School Management" mydata:companytagline="" version="1.1" xmlns="http://www.w3.org/2000/svg" xmlns:xlink="http://www.w3.org/1999/xlink" viewBox="0 45 550 380"><g fill="none" fill-rule="none" stroke="none" stroke-width="1" stroke-linecap="butt" stroke-linejoin="miter" stroke-miterlimit="10" stroke-dasharray="" stroke-dashoffset="0" font-family="none" font-weight="none" font-size="none" text-anchor="none" style="mix-blend-mode: normal"><g data-paper-data="{&quot;isGlobalGroup&quot;:true,&quot;bounds&quot;:{&quot;x&quot;:143.57498957106267,&quot;y&quot;:115.21446461024874,&quot;width&quot;:262.8500208578747,&quot;height&quot;:239.57107077950252}}"><g data-paper-data="{&quot;stacked&quot;:true,&quot;isPrimaryText&quot;:true}" fill-rule="nonzero"><path d="M176.47652,302.80058c-2.29405,-6.09735 -8.75362,-8.02918 -14.48875,-9.7799c-4.82958,-1.44887 -8.27066,-2.83738 -9.47806,-6.15772c-0.54333,-1.56961 -0.36222,-3.56182 0.42259,-5.07106c2.05257,-3.86367 7.36511,-3.86367 7.42548,-3.86367c4.28625,0 8.33103,1.87146 11.40989,5.25217c0.36222,0.36222 0.66407,0.72444 0.96592,1.14703l4.40699,-4.40699c-4.22588,-4.64847 -10.14212,-7.54622 -16.7828,-7.54622c-1.02629,0 -9.96101,0.18111 -13.46246,6.82179c-1.56961,2.89775 -1.87146,6.45957 -0.72444,9.53843c2.11294,5.91624 8.57251,7.90844 14.1869,9.59879c4.95032,1.50924 8.45177,2.89775 9.71953,6.3992c0.06037,0.06037 0.84518,2.47516 -0.12074,4.70884c-1.26777,3.01849 -4.34662,4.95032 -9.59879,5.01069c-4.28625,0 -8.3914,-1.87146 -11.40989,-5.25217c-0.36222,-0.36222 -0.66407,-0.72444 -0.90555,-1.14703l-4.46736,4.46736c4.22588,4.5881 10.20249,7.48585 16.7828,7.48585c7.60659,-0.06037 13.70394,-3.25997 15.87725,-8.3914c1.87146,-4.28625 0.42259,-8.3914 0.24148,-8.81399z" data-paper-data="{&quot;glyphName&quot;:&quot;S&quot;,&quot;glyphIndex&quot;:0,&quot;firstGlyphOfWord&quot;:true,&quot;word&quot;:1,&quot;line&quot;:1,&quot;firstGlyphOfFirstLine&quot;:true}" fill="#00859b"></path><path d="M219.76165,308.11312c-0.30185,0.36222 -0.6037,0.72444 -0.90555,1.08666c-3.07886,3.38071 -7.12363,5.25217 -11.40989,5.25217c-4.28625,0 -8.3914,-1.87146 -11.40989,-5.25217c-3.13923,-3.50145 -4.88995,-8.08955 -4.88995,-13.03987c0,-4.88995 1.75072,-9.53843 4.88995,-12.9795c3.01849,-3.38071 7.12363,-5.25217 11.40989,-5.25217c4.28625,0 8.33103,1.87146 11.40989,5.25217c0.36222,0.36222 0.66407,0.72444 0.96592,1.14703l4.40699,-4.40699c-4.22588,-4.64847 -10.20249,-7.54622 -16.7828,-7.54622c-12.73802,0 -23.00089,10.68545 -23.00089,23.78569c0,13.16061 10.26286,23.84606 23.00089,23.84606c6.58031,0 12.55691,-2.89775 16.72243,-7.48585z" data-paper-data="{&quot;glyphName&quot;:&quot;C&quot;,&quot;glyphIndex&quot;:1,&quot;word&quot;:1,&quot;line&quot;:1}" fill="#00859b"></path><path d="M260.08866,273.52124v19.86166h-21.31053v-19.86166h-6.70105v45.27733h6.70105v-19.86166h21.31053v19.86166h6.70105v-45.27733z" data-paper-data="{&quot;glyphName&quot;:&quot;H&quot;,&quot;glyphIndex&quot;:2,&quot;word&quot;:1,&quot;line&quot;:1}" fill="#00859b"></path><path d="M297.03497,277.92823c4.28625,0 8.3914,1.87146 11.40989,5.25217c3.13923,3.44108 4.88995,8.08955 4.88995,12.9795c0,4.95032 -1.75072,9.53843 -4.88995,13.03987c-3.01849,3.38071 -7.12363,5.25217 -11.40989,5.25217c-4.28625,0 -8.33103,-1.87146 -11.40989,-5.25217c-3.13923,-3.50145 -4.88995,-8.08955 -4.88995,-13.03987c0,-4.88995 1.75072,-9.53843 4.88995,-12.9795c3.07886,-3.38071 7.12363,-5.25217 11.40989,-5.25217zM297.03497,272.37421c-12.67765,0 -23.00089,10.62508 -23.00089,23.78569c0,13.16061 10.32323,23.84606 23.00089,23.84606c12.67765,0 23.00089,-10.68545 23.00089,-23.84606c0,-13.16061 -10.32323,-23.78569 -23.00089,-23.78569z" data-paper-data="{&quot;glyphName&quot;:&quot;O&quot;,&quot;glyphIndex&quot;:3,&quot;word&quot;:1,&quot;line&quot;:1}" fill="#00859b"></path><path d="M347.26263,277.92823c4.28625,0 8.3914,1.87146 11.40989,5.25217c3.13923,3.44108 4.88995,8.08955 4.88995,12.9795c0,4.95032 -1.75072,9.53843 -4.88995,13.03987c-3.01849,3.38071 -7.12363,5.25217 -11.40989,5.25217c-4.28625,0 -8.33103,-1.87146 -11.40989,-5.25217c-3.13923,-3.50145 -4.88995,-8.08955 -4.88995,-13.03987c0,-4.88995 1.75072,-9.53843 4.88995,-12.9795c3.07886,-3.38071 7.12363,-5.25217 11.40989,-5.25217zM347.26263,272.37421c-12.67765,0 -23.00089,10.62508 -23.00089,23.78569c0,13.16061 10.32323,23.84606 23.00089,23.84606c12.67765,0 23.00089,-10.68545 23.00089,-23.84606c0,-13.16061 -10.32323,-23.78569 -23.00089,-23.78569z" data-paper-data="{&quot;glyphName&quot;:&quot;O&quot;,&quot;glyphIndex&quot;:4,&quot;word&quot;:1,&quot;line&quot;:1}" fill="#00859b"></path><path d="M383.60523,313.24455v-39.72332h-6.70105v45.27733h29.52082v-5.55402z" data-paper-data="{&quot;glyphName&quot;:&quot;L&quot;,&quot;glyphIndex&quot;:5,&quot;lastGlyphOfWord&quot;:true,&quot;word&quot;:1,&quot;line&quot;:1,&quot;lastGlyphOfFirstLine&quot;:true}" fill="#00859b"></path><path d="M172.07031,328.8807h-4.00348l-9.99187,19.51274l-9.99187,-19.51274h-4.00348h-0.50464v25.23199h3.73433v-18.94081l9.72273,18.94081h2.11949l9.72273,-18.94081v18.94081h3.73433v-25.23199z" data-paper-data="{&quot;glyphName&quot;:&quot;M&quot;,&quot;glyphIndex&quot;:6,&quot;firstGlyphOfWord&quot;:true,&quot;word&quot;:2,&quot;line&quot;:2,&quot;firstGlyphOfSecondLine&quot;:true}" fill="#e4002b"></path><path d="M188.28607,328.8807h-2.2877l-10.36194,25.23199h4.03712l2.48956,-6.59396h9.92458l2.5232,6.59396h4.03712zM183.3406,344.4236l3.80162,-9.95822l3.76798,9.95822z" data-paper-data="{&quot;glyphName&quot;:&quot;A&quot;,&quot;glyphIndex&quot;:7,&quot;word&quot;:2,&quot;line&quot;:2}" fill="#e4002b"></path><path d="M224.14914,328.8807h-3.73433v20.08466l-13.55799,-20.08466h-4.50812v25.23199h3.76798v-20.08466l13.52435,20.08466h4.50812z" data-paper-data="{&quot;glyphName&quot;:&quot;N&quot;,&quot;glyphIndex&quot;:8,&quot;word&quot;:2,&quot;line&quot;:2}" fill="#e4002b"></path><path d="M239.82661,328.8807h-2.2877l-10.36194,25.23199h4.03712l2.48956,-6.59396h9.92458l2.5232,6.59396h4.03712zM234.88114,344.4236l3.80162,-9.95822l3.76798,9.95822z" data-paper-data="{&quot;glyphName&quot;:&quot;A&quot;,&quot;glyphIndex&quot;:9,&quot;word&quot;:2,&quot;line&quot;:2}" fill="#e4002b"></path><path d="M267.24537,339.98277v3.09512h6.42575c-0.30278,2.15313 -1.21114,4.1044 -2.62413,5.68561c-1.68213,1.88399 -3.96983,2.92691 -6.35846,2.92691c-2.38863,0 -4.64269,-1.04292 -6.35846,-2.92691c-1.74942,-1.95127 -2.69141,-4.50812 -2.69141,-7.26681c0,-2.72505 0.94199,-5.31554 2.69141,-7.23317c1.71578,-1.88399 3.96983,-2.92691 6.35846,-2.92691c2.38863,0 4.67633,1.04292 6.35846,2.92691c0.20186,0.20186 0.37007,0.43735 0.53828,0.63921l2.45591,-2.45591c-2.32134,-2.59048 -5.65197,-4.20533 -9.35266,-4.20533c-7.06496,0 -12.81785,5.95475 -12.81785,13.2552c0,7.3341 5.75289,13.28885 12.81785,13.28885c3.53248,0 6.76217,-1.51392 9.08352,-3.90255v3.22969h3.73433v-14.12991z" data-paper-data="{&quot;glyphName&quot;:&quot;G&quot;,&quot;glyphIndex&quot;:10,&quot;word&quot;:2,&quot;line&quot;:2}" fill="#e4002b"></path><path d="M286.62354,351.01756v-8.44431h10.66472v-3.12877h-10.66472v-7.46867h13.05335v-3.09512h-16.78768v25.23199h17.42689v-3.09512z" data-paper-data="{&quot;glyphName&quot;:&quot;E&quot;,&quot;glyphIndex&quot;:11,&quot;word&quot;:2,&quot;line&quot;:2}" fill="#e4002b"></path><path d="M333.18496,328.8807h-4.00348l-9.99187,19.51274l-9.99187,-19.51274h-4.00348h-0.50464v25.23199h3.73433v-18.94081l9.72273,18.94081h2.11949l9.72273,-18.94081v18.94081h3.73433v-25.23199z" data-paper-data="{&quot;glyphName&quot;:&quot;M&quot;,&quot;glyphIndex&quot;:12,&quot;word&quot;:2,&quot;line&quot;:2}" fill="#e4002b"></path><path d="M343.51326,351.01756v-8.44431h10.66472v-3.12877h-10.66472v-7.46867h13.05335v-3.09512h-16.78768v25.23199h17.42689v-3.09512z" data-paper-data="{&quot;glyphName&quot;:&quot;E&quot;,&quot;glyphIndex&quot;:13,&quot;word&quot;:2,&quot;line&quot;:2}" fill="#e4002b"></path><path d="M384.05265,328.8807h-3.73433v20.08466l-13.55799,-20.08466h-4.50812v25.23199h3.76798v-20.08466l13.52435,20.08466h4.50812z" data-paper-data="{&quot;glyphName&quot;:&quot;N&quot;,&quot;glyphIndex&quot;:14,&quot;word&quot;:2,&quot;line&quot;:2}" fill="#e4002b"></path><path d="M406.42501,328.8807h-19.34452v3.09512h7.80509v22.13686h3.73433v-22.13686h7.80509z" data-paper-data="{&quot;glyphName&quot;:&quot;T&quot;,&quot;glyphIndex&quot;:15,&quot;lastGlyphOfWord&quot;:true,&quot;word&quot;:2,&quot;line&quot;:2,&quot;lastGlyphOfSecondLine&quot;:true}" fill="#e4002b"></path></g><g data-paper-data="{&quot;isIcon&quot;:&quot;true&quot;,&quot;iconType&quot;:&quot;icon&quot;,&quot;rawIconId&quot;:&quot;4033925&quot;,&quot;selectedEffects&quot;:{&quot;container&quot;:&quot;&quot;,&quot;transformation&quot;:&quot;&quot;,&quot;pattern&quot;:&quot;&quot;},&quot;isDetailed&quot;:false,&quot;fillRule&quot;:&quot;evenodd&quot;,&quot;bounds&quot;:{&quot;x&quot;:209.70110422411548,&quot;y&quot;:115.21446461024874,&quot;width&quot;:130.597791551769,&quot;height&quot;:130.44832353674607},&quot;iconStyle&quot;:&quot;standalone&quot;,&quot;suitableAsStandaloneIcon&quot;:true}" fill-rule="evenodd"><g data-paper-data="{&quot;isPathIcon&quot;:true}"><path d="M278.65616,115.21446c16.06501,0.887 31.23903,7.67101 42.61404,19.05102l-0.021,-0.061c20.60702,20.68702 24.98702,52.53604 10.72901,78.01807c-14.25801,25.48202 -43.69204,38.41103 -72.10306,31.67003c-28.27202,-6.70601 -48.70004,-31.26903 -50.17404,-60.25405v-0.807c0.073,-0.617 0.335,-1.199 0.756,-1.664c0.529,-0.571 1.263,-0.908 2.041,-0.939c1.609,-0.047 2.965,1.191 3.063,2.797c1.353,32.08303 27.90402,57.31405 60.01405,57.03105c32.11003,-0.284 58.21105,-25.97802 58.99805,-58.08005c0.787,-32.10203 -24.02302,-59.04505 -56.08105,-60.90105c-1.609,-0.11 -2.829,-1.494 -2.736,-3.104c0.054,-1.526 1.296,-2.734 2.813,-2.757z" fill="#00859b"></path><path d="M329.90621,182.34352c-0.99,29.53503 -25.31402,52.91205 -54.86505,52.73005c-14.47301,0.009 -28.35002,-5.761 -38.55003,-16.02901c-1.079,-1.147 -1.079,-2.936 0,-4.083c1.139,-1.1 2.944,-1.1 4.083,0c15.29501,15.27801 38.82903,18.65002 57.79905,8.28201c18.97002,-10.36901 28.83802,-31.99803 24.23602,-53.12105c-4.602,-21.12302 -22.57302,-36.68703 -44.13704,-38.22503c-1.613,-0.062 -2.87,-1.42 -2.808,-3.033c0.062,-1.612 1.42,-2.869 3.032,-2.807c29.49603,1.798 52.20004,26.75202 51.21004,56.28605z" fill="#00859b"></path><path d="M278.61516,142.71949c19.97902,1.898 35.02803,19.02002 34.34703,39.07703c-0.682,20.05702 -16.85801,36.11803 -36.92003,36.65603c-1.592,0.045 -2.859,1.348 -2.859,2.941c0.034,1.593 1.347,2.861 2.941,2.838c22.98702,-0.818 41.42604,-19.27802 42.21604,-42.26704c0.79,-22.98802 -16.33701,-42.67104 -39.21503,-45.06504h-0.531c-1.56,0.039 -2.835,1.26 -2.94,2.818c-0.058,1.534 1.122,2.832 2.654,2.92z" fill="#00859b"></path><path d="M294.62318,200.09654c7.93101,-7.92201 10.30801,-19.84302 6.02101,-30.20003c-4.287,-10.35801 -14.39301,-17.11301 -25.60302,-17.11301c-11.21001,0 -21.31502,6.75501 -25.60202,17.11301c-4.287,10.35701 -1.91,22.27802 6.02101,30.20003c10.82701,10.78301 28.33602,10.78301 39.16303,0z" fill="#e4002b"></path></g></g></g></g><g class="watermark-group" style="opacity:0.10; stroke: white; stroke-width: 2; stroke-opacity: 0.7;"><path class="watermark-path" d="M129.52,370.3a11.88,11.88,0,0,1,2.58,5.58,12,12,0,0,1,.11,3,11.81,11.81,0,0,1-.64,2.93,12.34,12.34,0,0,1-1.41,2.72,11.65,11.65,0,0,1-2.13,2.32,12,12,0,0,1-2.64,1.69,13,13,0,0,1-2.91.9,12.47,12.47,0,0,1-3,.12,12.17,12.17,0,0,1-2.93-.64,11.8,11.8,0,0,1-2.72-1.38,12.19,12.19,0,0,1-4-4.79,11.85,11.85,0,0,1-.89-2.92,12.14,12.14,0,0,1-.13-3,11.54,11.54,0,0,1,.64-2.92,11.67,11.67,0,0,1,3.5-5,11.44,11.44,0,0,1,2.67-1.69,11.64,11.64,0,0,1,2.92-.91,10.71,10.71,0,0,1,3-.12,11.68,11.68,0,0,1,5.66,2,11.7,11.7,0,0,1,2.34,2.12m-1.4,8.76a13,13,0,0,1-1.22,2.32,9.68,9.68,0,0,1-1.81,2,7.44,7.44,0,0,1-2.38,1.37,6.17,6.17,0,0,1-5.11-.46,8.73,8.73,0,0,1-3.85-4.58,6.69,6.69,0,0,1-.34-2.66,6.09,6.09,0,0,1,.77-2.47,7.15,7.15,0,0,1,1.75-2.11,9.58,9.58,0,0,1,1.09-.81,8.23,8.23,0,0,1,1.12-.63,8.14,8.14,0,0,1,1.19-.46,12.71,12.71,0,0,1,1.32-.37l2,2.38a12.83,12.83,0,0,0-1.56.17,7.86,7.86,0,0,0-1.23.32,4.5,4.5,0,0,0-1,.49,6.41,6.41,0,0,0-.93.67,4.49,4.49,0,0,0-1.15,1.39,3.87,3.87,0,0,0-.45,1.58,4.12,4.12,0,0,0,.26,1.63,6.11,6.11,0,0,0,2.36,2.82,4.43,4.43,0,0,0,1.57.53,3.91,3.91,0,0,0,1.62-.17,4.71,4.71,0,0,0,1.57-.89,10.5,10.5,0,0,0,.83-.79,5.71,5.71,0,0,0,.65-.93,10.13,10.13,0,0,0,.54-1.14,12.24,12.24,0,0,0,.44-1.49l2,2.33m-14.46,4.55a8.86,8.86,0,0,0,2.78,2.22,9,9,0,0,0,3.29.94,9.15,9.15,0,0,0,3.39-.37,8.68,8.68,0,0,0,3.11-1.69,8.8,8.8,0,0,0,2.22-2.78,9.15,9.15,0,0,0,1-3.29,8.95,8.95,0,0,0-4.83-8.76,9,9,0,0,0-6.73-.57,9,9,0,0,0-5.33,4.47,8.94,8.94,0,0,0-.57,6.71,8.76,8.76,0,0,0,1.7,3.12"></path><path class="watermark-path" d="M147,349c-.48.12-1.09.31-1.82.57a24.37,24.37,0,0,0-2.4,1A28.35,28.35,0,0,0,140,352a20.72,20.72,0,0,0-2.71,1.94c-.7.59-1.28,1.11-1.74,1.57a15.07,15.07,0,0,0-1.1,1.22,4.09,4.09,0,0,0-.59.92,2.32,2.32,0,0,0-.22.64,1.16,1.16,0,0,0,0,.47,1.83,1.83,0,0,0,.18.29,1.15,1.15,0,0,0,1,.37,5.54,5.54,0,0,0,1.51-.38q.87-.35,1.95-.9l2.26-1.18q1.2-.65,2.49-1.29c.87-.44,1.73-.83,2.59-1.17a18.94,18.94,0,0,1,2.6-.81,9.27,9.27,0,0,1,2.46-.29,6.25,6.25,0,0,1,2.24.49,5.12,5.12,0,0,1,1.89,1.47,6.35,6.35,0,0,1,1.41,2.61,6,6,0,0,1,.09,2.6,8.3,8.3,0,0,1-.9,2.52,17.79,17.79,0,0,1-1.62,2.37,23.92,23.92,0,0,1-2,2.15c-.72.67-1.41,1.29-2.09,1.87a33.79,33.79,0,0,1-5.33,3.7,32.29,32.29,0,0,1-4.91,2.28l-3.61-4.3a21.38,21.38,0,0,0,5.39-1.87,27.2,27.2,0,0,0,5.4-3.56,21.59,21.59,0,0,0,2.38-2.27,8.67,8.67,0,0,0,1.18-1.7,2.32,2.32,0,0,0,.27-1.19,1.34,1.34,0,0,0-.28-.74,1.21,1.21,0,0,0-1-.42,4.32,4.32,0,0,0-1.55.34,15.77,15.77,0,0,0-2,.88c-.72.37-1.48.77-2.27,1.21l-2.45,1.3c-.85.45-1.7.85-2.56,1.21a22.37,22.37,0,0,1-2.54.86,10,10,0,0,1-2.43.32,5.76,5.76,0,0,1-2.2-.45,5,5,0,0,1-1.89-1.45,6.12,6.12,0,0,1-1.31-2.41,6,6,0,0,1-.1-2.41,8.28,8.28,0,0,1,.81-2.38,14.06,14.06,0,0,1,1.49-2.24,22.37,22.37,0,0,1,1.85-2.05q1-1,2-1.77c.7-.59,1.44-1.15,2.23-1.7s1.62-1.06,2.44-1.53,1.63-.91,2.43-1.3,1.58-.75,2.3-1L147,349"></path><path class="watermark-path" d="M186.76,337.57l-10.6-12.63,3.92,18.24-4.66,3.91-17.27-7,10.6,12.63-4.86,4.07-15.09-18,6.59-5.54,18.69,7.52-4.15-19.71,6.57-5.52,15.09,18-4.83,4.05"></path><path class="watermark-path" d="M208.84,313.24l-10,8.42,1.16,4.82L194.56,331l-5.68-25.89,5.42-4.55,24.51,10.09-5.42,4.55-4.55-2m-11.23,3.45,6.57-5.52-8.83-3.87,2.26,9.39"></path><path class="watermark-path" d="M227.49,281.38c-.48.12-1.09.31-1.82.57a24.37,24.37,0,0,0-2.4,1,26.11,26.11,0,0,0-2.7,1.47,20.72,20.72,0,0,0-2.71,1.94c-.7.59-1.28,1.11-1.74,1.57a13.39,13.39,0,0,0-1.1,1.22,4.29,4.29,0,0,0-.59.91,2.48,2.48,0,0,0-.22.65,1.16,1.16,0,0,0,0,.47,1.83,1.83,0,0,0,.18.29,1.15,1.15,0,0,0,1,.37,5.54,5.54,0,0,0,1.51-.38q.87-.34,2-.9l2.26-1.18q1.2-.64,2.49-1.29c.87-.44,1.73-.83,2.59-1.17a18.94,18.94,0,0,1,2.6-.81,9.27,9.27,0,0,1,2.46-.29,6.08,6.08,0,0,1,2.24.49,5.09,5.09,0,0,1,1.89,1.46,6.47,6.47,0,0,1,1.41,2.61,6.07,6.07,0,0,1,.09,2.61,8.3,8.3,0,0,1-.9,2.52,16.32,16.32,0,0,1-1.63,2.36,21.41,21.41,0,0,1-2,2.16c-.72.67-1.41,1.29-2.1,1.86a33.36,33.36,0,0,1-5.32,3.71,31.92,31.92,0,0,1-4.92,2.28l-3.6-4.3a21.38,21.38,0,0,0,5.39-1.87,27.2,27.2,0,0,0,5.4-3.56,21.59,21.59,0,0,0,2.38-2.27,8.67,8.67,0,0,0,1.18-1.7A2.32,2.32,0,0,0,231,293a1.34,1.34,0,0,0-.28-.74,1.21,1.21,0,0,0-1-.42,4.32,4.32,0,0,0-1.55.34,16.54,16.54,0,0,0-2,.88c-.71.37-1.47.77-2.26,1.21l-2.46,1.3c-.84.44-1.7.85-2.55,1.21a24.53,24.53,0,0,1-2.54.86A10,10,0,0,1,214,298a5.76,5.76,0,0,1-2.2-.45,5,5,0,0,1-1.89-1.45,6.12,6.12,0,0,1-1.31-2.41,5.78,5.78,0,0,1-.1-2.41,8,8,0,0,1,.81-2.38,14.61,14.61,0,0,1,1.49-2.25,22.26,22.26,0,0,1,1.85-2q1-1,2-1.77c.7-.59,1.44-1.15,2.23-1.7s1.62-1.06,2.44-1.53,1.63-.91,2.43-1.31,1.58-.74,2.3-1l3.5,4.16"></path><path class="watermark-path" d="M261.64,274.74l-6.29-7.5L243,277.61l6.3,7.5-4.86,4.07-15.09-18,4.85-4.08,5.49,6.55L252,263.3l-5.49-6.55,4.86-4.07,15.09,18-4.86,4.08"></path><path class="watermark-path" d="M272.18,265.9l-15.09-18,4.86-4.08,15.09,18-4.86,4.08"></path><path class="watermark-path" d="M299.65,242.85l-22.51-2.18L287.51,253l-4.85,4.08-15.1-18,5.28-4.43,22.56,2.22L285,224.5l4.83-4.06,15.09,18-5.26,4.42"></path><path class="watermark-path" d="M306.68,205.52a31.88,31.88,0,0,1,5.29-3.66,34.48,34.48,0,0,1,5.14-2.35l3.69,4.39a20.77,20.77,0,0,0-2.37.61,20.47,20.47,0,0,0-2.61,1,25.12,25.12,0,0,0-2.76,1.49,23.9,23.9,0,0,0-2.8,2,20.42,20.42,0,0,0-2.8,2.77,12.77,12.77,0,0,0-1.64,2.52,7,7,0,0,0-.68,2.24,6,6,0,0,0,.66,3.64,8.16,8.16,0,0,0,.94,1.38,9.12,9.12,0,0,0,1.08,1.07,6.39,6.39,0,0,0,1.47.91,6.73,6.73,0,0,0,1.88.48,6.54,6.54,0,0,0,2.28-.18,11.67,11.67,0,0,0,2.74-1.07,19.38,19.38,0,0,0,3.18-2.22c.57-.48,1.06-.92,1.46-1.31a14.57,14.57,0,0,0,1-1.13,11.46,11.46,0,0,0,.81-1.05l.74-1.09-1.82-2.17-5.45,4.57-3.31-3.94,10.31-8.65,7.71,9.19a29,29,0,0,1-1.67,2.43q-1,1.26-2.1,2.52c-.74.84-1.5,1.65-2.3,2.44s-1.58,1.5-2.33,2.14a31,31,0,0,1-3.59,2.61,22.55,22.55,0,0,1-3.64,1.83,15.64,15.64,0,0,1-3.63.89,10.72,10.72,0,0,1-3.49-.15,10.45,10.45,0,0,1-3.28-1.33,12.54,12.54,0,0,1-3-2.67,12,12,0,0,1-2.08-3.44,10.45,10.45,0,0,1-.71-3.5,11.14,11.14,0,0,1,.51-3.51,15.72,15.72,0,0,1,1.56-3.43,21.62,21.62,0,0,1,2.42-3.28,30.3,30.3,0,0,1,3.15-3"></path><path class="watermark-path" d="M336.91,211.59l-15.1-18,4.86-4.08,11.79,14,13.13-11,3.31,3.94-18,15.1"></path><path class="watermark-path" d="M374.54,164.71a12.28,12.28,0,0,1,2.59,4.81,10.44,10.44,0,0,1,0,5,14.62,14.62,0,0,1-2.33,5,25.55,25.55,0,0,1-4.56,4.85,26.07,26.07,0,0,1-5.6,3.67,14.79,14.79,0,0,1-5.38,1.43,10.43,10.43,0,0,1-4.94-.89,13.24,13.24,0,0,1-6.87-8.18,10.48,10.48,0,0,1,0-5,14.51,14.51,0,0,1,2.36-5,25.23,25.23,0,0,1,4.57-4.89,25,25,0,0,1,5.59-3.64,14.45,14.45,0,0,1,5.35-1.43,10.31,10.31,0,0,1,4.93.92,12.22,12.22,0,0,1,4.28,3.38m-4.91,4.11a8.36,8.36,0,0,0-2-1.72,5.5,5.5,0,0,0-2.65-.85,7.72,7.72,0,0,0-3.32.57,14.49,14.49,0,0,0-4,2.52,16.72,16.72,0,0,0-2.38,2.4,10.15,10.15,0,0,0-1.39,2.24,6.71,6.71,0,0,0-.56,2.1,5.69,5.69,0,0,0,.1,1.9,6.21,6.21,0,0,0,.61,1.69,9.85,9.85,0,0,0,1,1.44,10.48,10.48,0,0,0,1.26,1.23,6.67,6.67,0,0,0,1.57.92,6.1,6.1,0,0,0,1.85.41,6.8,6.8,0,0,0,2.15-.2,11.06,11.06,0,0,0,2.45-1,17.67,17.67,0,0,0,2.77-1.94,14.39,14.39,0,0,0,3.18-3.52,7.74,7.74,0,0,0,1.14-3.17,5.54,5.54,0,0,0-.37-2.74,8.52,8.52,0,0,0-1.36-2.3"></path><path class="watermark-path" d="M382.66,141.76A32.3,32.3,0,0,1,388,138.1a34.12,34.12,0,0,1,5.15-2.35l3.69,4.4a19.62,19.62,0,0,0-2.37.6,22.08,22.08,0,0,0-2.61,1,26,26,0,0,0-2.77,1.49,23.9,23.9,0,0,0-2.8,2,21,21,0,0,0-2.8,2.78,13.19,13.19,0,0,0-1.64,2.51,7.29,7.29,0,0,0-.68,2.24,6.36,6.36,0,0,0,.06,2,5.8,5.8,0,0,0,.61,1.68,8.12,8.12,0,0,0,.93,1.38,9.16,9.16,0,0,0,1.08,1.08,6.56,6.56,0,0,0,1.48.9,6,6,0,0,0,1.87.48,6.76,6.76,0,0,0,2.28-.17,12,12,0,0,0,2.74-1.08,18.57,18.57,0,0,0,3.18-2.22c.58-.48,1.06-.92,1.46-1.31s.75-.77,1.05-1.12.57-.72.81-1.06l.73-1.09-1.82-2.17-5.45,4.57-3.3-3.94,10.3-8.65,7.71,9.19a29,29,0,0,1-1.67,2.43q-1,1.26-2.1,2.52c-.73.84-1.5,1.66-2.3,2.44s-1.57,1.5-2.33,2.14a31,31,0,0,1-3.59,2.61,22.15,22.15,0,0,1-3.64,1.83,15.56,15.56,0,0,1-3.62.89,11,11,0,0,1-3.49-.14,10.84,10.84,0,0,1-3.28-1.33,12.82,12.82,0,0,1-3-2.68,12.12,12.12,0,0,1-2.08-3.43A10.71,10.71,0,0,1,375,155a11.18,11.18,0,0,1,.51-3.51,15.51,15.51,0,0,1,1.57-3.43,21.44,21.44,0,0,1,2.42-3.28,30.19,30.19,0,0,1,3.14-3"></path><path class="watermark-path" d="M428.63,119.31a12.26,12.26,0,0,1,2.59,4.82,10.44,10.44,0,0,1,0,5,14.53,14.53,0,0,1-2.34,5,25.29,25.29,0,0,1-4.56,4.86,26,26,0,0,1-5.59,3.67,14.84,14.84,0,0,1-5.38,1.43,10.61,10.61,0,0,1-4.95-.89,12.15,12.15,0,0,1-4.3-3.37,12,12,0,0,1-2.56-4.81,10.48,10.48,0,0,1,0-5,14.39,14.39,0,0,1,2.35-5,27.89,27.89,0,0,1,10.16-8.53,14.49,14.49,0,0,1,5.36-1.43,10.27,10.27,0,0,1,4.92.92,12.21,12.21,0,0,1,4.28,3.37m-4.91,4.12a8.17,8.17,0,0,0-2-1.72,5.58,5.58,0,0,0-2.65-.86,7.86,7.86,0,0,0-3.31.58,14.49,14.49,0,0,0-4,2.52,16.21,16.21,0,0,0-2.38,2.4,9.85,9.85,0,0,0-1.4,2.24,7,7,0,0,0-.56,2.1,6,6,0,0,0,.1,1.9,6.23,6.23,0,0,0,.62,1.69,8.49,8.49,0,0,0,1,1.44,9.18,9.18,0,0,0,1.26,1.23,6.67,6.67,0,0,0,1.57.92,6,6,0,0,0,1.84.41,6.86,6.86,0,0,0,2.16-.2,11.26,11.26,0,0,0,2.45-1,17.62,17.62,0,0,0,2.76-1.94,14.67,14.67,0,0,0,3.19-3.52,7.71,7.71,0,0,0,1.13-3.17,5.53,5.53,0,0,0-.36-2.74,8.55,8.55,0,0,0-1.37-2.3"></path></g></svg>